<svg xmlns="http://www.w3.org/2000/svg" viewBox="0 0 352.59 45.42"><defs><style>.cls-1{fill:#fff;}</style></defs><g id="Layer_2" data-name="Layer 2"><g id="Layer_1-2" data-name="Layer 1"><path class="cls-1" d="M0,44.67V.75H20A27.83,27.83,0,0,1,32.56,3.48a20.84,20.84,0,0,1,8.53,7.62,21.41,21.41,0,0,1,3.08,11.61,21.42,21.42,0,0,1-3.08,11.58,20.77,20.77,0,0,1-8.53,7.65A27.83,27.83,0,0,1,20,44.67Zm10.16-8.34h9.29a16.41,16.41,0,0,0,7.62-1.67,11.94,11.94,0,0,0,5-4.73,14.14,14.14,0,0,0,1.79-7.22,14.1,14.1,0,0,0-1.79-7.25,12.12,12.12,0,0,0-5-4.7A16.41,16.41,0,0,0,19.45,9.1H10.16Z"/><path class="cls-1" d="M45.42,44.67,65,.75H75L94.67,44.67H84L68,5.9h4L55.84,44.67Zm9.79-9.41,2.7-7.72H80.49l2.76,7.72Z"/><path class="cls-1" d="M106.15,44.67V9H92.1V.75h38.27V9H116.32V44.67Z"/><path class="cls-1" d="M127.86,44.67,147.43.75h10l19.64,43.92H166.44L150.38,5.9h4L138.27,44.67Z"/><path class="cls-1" d="M192.48,44.67,173.53.75h11l16.57,38.9h-6.47L211.43.75h10.1l-19,43.92Z"/><path class="cls-1" d="M225.17,44.67V.75h10.16V44.67Z"/><path class="cls-1" d="M245.74,44.67V.75h8.41l25.91,31.62H276V.75h10V44.67h-8.34l-26-31.62h4.08V44.67Z"/><path class="cls-1" d="M317.45,45.42A26.28,26.28,0,0,1,308,43.76a22,22,0,0,1-12.55-11.95,22.73,22.73,0,0,1-1.78-9.1,22.76,22.76,0,0,1,1.78-9.1,21.93,21.93,0,0,1,5-7.21A22.73,22.73,0,0,1,308,1.66,26.23,26.23,0,0,1,317.52,0a25.94,25.94,0,0,1,10.32,2,20,20,0,0,1,7.74,5.8l-6.52,6a15.43,15.43,0,0,0-5-3.86,14.19,14.19,0,0,0-6-1.28,15.42,15.42,0,0,0-5.65,1,12.73,12.73,0,0,0-4.45,2.89A13.09,13.09,0,0,0,305,17a15.19,15.19,0,0,0-1,5.71,15.16,15.16,0,0,0,1,5.71,13,13,0,0,0,2.92,4.45,12.73,12.73,0,0,0,4.45,2.89,15.42,15.42,0,0,0,5.65,1,14,14,0,0,0,6-1.28,15.1,15.1,0,0,0,5-3.92l6.52,6a20.3,20.3,0,0,1-7.74,5.83A25.78,25.78,0,0,1,317.45,45.42Z"/><path class="cls-1" d="M342.42,44.67V.75h10.17V44.67Z"/></g></g></svg>